<svg xmlns="http://www.w3.org/2000/svg" width="1200" height="420" viewBox="0 0 1200 420" role="img" aria-label="Codex Relay Lite product preview">
  <defs>
    <linearGradient id="bg" x1="0" y1="0" x2="1" y2="1">
      <stop offset="0" stop-color="#0b1220"/>
      <stop offset="0.55" stop-color="#111827"/>
      <stop offset="1" stop-color="#10251f"/>
    </linearGradient>
    <linearGradient id="accent" x1="0" y1="0" x2="1" y2="1">
      <stop offset="0" stop-color="#67e8f9"/>
      <stop offset="0.55" stop-color="#38bdf8"/>
      <stop offset="1" stop-color="#a7f3d0"/>
    </linearGradient>
    <filter id="soft" x="-20%" y="-20%" width="140%" height="140%">
      <feDropShadow dx="0" dy="18" stdDeviation="22" flood-color="#020617" flood-opacity="0.45"/>
    </filter>
  </defs>

  <rect width="1200" height="420" rx="26" fill="url(#bg)"/>

  <g transform="translate(70 66)">
    <path d="M71 8A62 62 0 1 0 71 132" fill="none" stroke="url(#accent)" stroke-width="18" stroke-linecap="round"/>
    <path d="M67 44A26 26 0 1 0 67 96" fill="none" stroke="#f8fafc" stroke-width="9" stroke-linecap="round" opacity="0.92"/>
    <path d="M86 70h38M105 51v38" fill="none" stroke="#facc15" stroke-width="8" stroke-linecap="round"/>
  </g>

  <g transform="translate(218 68)">
    <text x="0" y="45" fill="#f8fafc" font-family="Segoe UI, Microsoft YaHei, Arial, sans-serif" font-size="42" font-weight="800">Codex Relay Lite</text>
    <text x="0" y="86" fill="#bae6fd" font-family="Segoe UI, Microsoft YaHei, Arial, sans-serif" font-size="20">中文 Windows 用户的极简 Codex 中转站配置器</text>
    <text x="0" y="124" fill="#cbd5e1" font-family="Segoe UI, Microsoft YaHei, Arial, sans-serif" font-size="17">不做代理，不接管 Codex，只把 provider/profile/key 这件小事做稳。</text>
  </g>

  <g transform="translate(70 238)">
    <rect x="0" y="0" width="200" height="44" rx="22" fill="#13202d" stroke="#234155"/>
    <text x="28" y="29" fill="#e0f2fe" font-family="Segoe UI, Microsoft YaHei, Arial, sans-serif" font-size="15" font-weight="700">Windows first</text>
    <rect x="220" y="0" width="226" height="44" rx="22" fill="#13251f" stroke="#2f5f50"/>
    <text x="248" y="29" fill="#dcfce7" font-family="Segoe UI, Microsoft YaHei, Arial, sans-serif" font-size="15" font-weight="700">No local proxy</text>
    <rect x="466" y="0" width="268" height="44" rx="22" fill="#241f13" stroke="#64512a"/>
    <text x="494" y="29" fill="#fef3c7" font-family="Segoe UI, Microsoft YaHei, Arial, sans-serif" font-size="15" font-weight="700">SecretStorage + env</text>
  </g>

  <g transform="translate(720 62)" filter="url(#soft)">
    <rect x="0" y="0" width="410" height="286" rx="16" fill="#0f172a" stroke="#334155"/>
    <rect x="24" y="24" width="362" height="44" rx="8" fill="#111827" stroke="#334155"/>
    <text x="42" y="52" fill="#e2e8f0" font-family="Segoe UI, Microsoft YaHei, Arial, sans-serif" font-size="16" font-weight="700">Provider 设置</text>

    <text x="24" y="98" fill="#93c5fd" font-family="Segoe UI, Microsoft YaHei, Arial, sans-serif" font-size="13">配置名称 / profile</text>
    <rect x="24" y="110" width="168" height="36" rx="7" fill="#111827" stroke="#334155"/>
    <text x="40" y="134" fill="#f8fafc" font-family="Consolas, monospace" font-size="14">deepseek</text>

    <text x="214" y="98" fill="#93c5fd" font-family="Segoe UI, Microsoft YaHei, Arial, sans-serif" font-size="13">API 提供商</text>
    <rect x="214" y="110" width="172" height="36" rx="7" fill="#111827" stroke="#334155"/>
    <text x="230" y="134" fill="#f8fafc" font-family="Segoe UI, Microsoft YaHei, Arial, sans-serif" font-size="14">OpenAI Compatible</text>

    <text x="24" y="176" fill="#93c5fd" font-family="Segoe UI, Microsoft YaHei, Arial, sans-serif" font-size="13">Base URL</text>
    <rect x="24" y="188" width="362" height="36" rx="7" fill="#111827" stroke="#334155"/>
    <text x="40" y="212" fill="#f8fafc" font-family="Consolas, monospace" font-size="14">https://api.deepseek.com</text>

    <rect x="24" y="246" width="112" height="34" rx="8" fill="#075985"/>
    <text x="50" y="268" fill="#f0f9ff" font-family="Segoe UI, Microsoft YaHei, Arial, sans-serif" font-size="14" font-weight="700">测试连接</text>
    <rect x="150" y="246" width="112" height="34" rx="8" fill="#0e7490"/>
    <text x="176" y="268" fill="#f0f9ff" font-family="Segoe UI, Microsoft YaHei, Arial, sans-serif" font-size="14" font-weight="700">保存配置</text>
    <rect x="276" y="246" width="110" height="34" rx="8" fill="#14532d"/>
    <text x="300" y="268" fill="#dcfce7" font-family="Segoe UI, Microsoft YaHei, Arial, sans-serif" font-size="14" font-weight="700">打开 Codex</text>
  </g>
</svg>
